  0
SECTION
  2
HEADER
  9
$ACADVER
  1
AC1015
  9
$ACADMAINTVER
 70
     6
  9
$DWGCODEPAGE
  3
ANSI_1252
  9
$INSBASE
 10
0.0
 20
0.0
 30
0.0
  9
$EXTMIN
 10
0.0
 20
0.0
 30
0.0
  9
$EXTMAX
 10
594.0
 20
420.0
 30
0.0
  9
$LIMMIN
 10
0.0
 20
0.0
  9
$LIMMAX
 10
594.0
 20
420.0
  9
$ORTHOMODE
 70
     0
  9
$REGENMODE
 70
     1
  9
$FILLMODE
 70
     1
  9
$QTEXTMODE
 70
     0
  9
$MIRRTEXT
 70
     1
  9
$LTSCALE
 40
1.0
  9
$ATTMODE
 70
     1
  9
$TEXTSIZE
 40
0.2
  9
$TRACEWID
 40
0.05
  9
$TEXTSTYLE
  7
Standard
  9
$CLAYER
  8
0
  9
$CELTYPE
  6
ByLayer
  9
$CECOLOR
 62
   256
  9
$CELTSCALE
 40
25.4
  9
$DISPSILH
 70
     0
  9
$DIMSCALE
 40
1.0
  9
$DIMASZ
 40
0.18
  9
$DIMEXO
 40
0.0625
  9
$DIMDLI
 40
0.38
  9
$DIMRND
 40
0.0
  9
$DIMDLE
 40
0.0
  9
$DIMEXE
 40
0.18
  9
$DIMTP
 40
0.0
  9
$DIMTM
 40
0.0
  9
$DIMTXT
 40
0.18
  9
$DIMCEN
 40
0.09
  9
$DIMTSZ
 40
0.0
  9
$DIMTOL
 70
     0
  9
$DIMLIM
 70
     0
  9
$DIMTIH
 70
     1
  9
$DIMTOH
 70
     1
  9
$DIMSE1
 70
     0
  9
$DIMSE2
 70
     0
  9
$DIMTAD
 70
     0
  9
$DIMZIN
 70
     0
  9
$DIMBLK
  1

  9
$DIMASO
 70
     1
  9
$DIMSHO
 70
     1
  9
$DIMPOST
  1

  9
$DIMAPOST
  1

  9
$DIMALT
 70
     0
  9
$DIMALTD
 70
     2
  9
$DIMALTF
 40
25.4
  9
$DIMLFAC
 40
1.0
  9
$DIMTOFL
 70
     0
  9
$DIMTVP
 40
0.0
  9
$DIMTIX
 70
     0
  9
$DIMSOXD
 70
     0
  9
$DIMSAH
 70
     0
  9
$DIMBLK1
  1

  9
$DIMBLK2
  1

  9
$DIMSTYLE
  2
Standard
  9
$DIMCLRD
 70
     0
  9
$DIMCLRE
 70
     0
  9
$DIMCLRT
 70
     0
  9
$DIMTFAC
 40
1.0
  9
$DIMGAP
 40
0.09
  9
$DIMJUST
 70
     0
  9
$DIMSD1
 70
     0
  9
$DIMSD2
 70
     0
  9
$DIMTOLJ
 70
     1
  9
$DIMTZIN
 70
     0
  9
$DIMALTZ
 70
     0
  9
$DIMALTTZ
 70
     0
  9
$DIMUPT
 70
     0
  9
$DIMDEC
 70
     4
  9
$DIMTDEC
 70
     4
  9
$DIMALTU
 70
     2
  9
$DIMALTTD
 70
     2
  9
$DIMTXSTY
  7
Standard
  9
$DIMAUNIT
 70
     0
  9
$DIMADEC
 70
     0
  9
$DIMALTRND
 40
0.0
  9
$DIMAZIN
 70
     0
  9
$DIMDSEP
 70
    46
  9
$DIMATFIT
 70
     3
  9
$DIMFRAC
 70
     0
  9
$DIMLDRBLK
  1

  9
$DIMLUNIT
 70
     2
  9
$DIMLWD
 70
    -2
  9
$DIMLWE
 70
    -2
  9
$DIMTMOVE
 70
     0
  9
$LUNITS
 70
     2
  9
$LUPREC
 70
     4
  9
$SKETCHINC
 40
0.1
  9
$FILLETRAD
 40
0.5
  9
$AUNITS
 70
     0
  9
$AUPREC
 70
     0
  9
$MENU
  1
.
  9
$ELEVATION
 40
0.0
  9
$PELEVATION
 40
0.0
  9
$THICKNESS
 40
0.0
  9
$LIMCHECK
 70
     0
  9
$CHAMFERA
 40
0.5
  9
$CHAMFERB
 40
0.5
  9
$CHAMFERC
 40
1.0
  9
$CHAMFERD
 40
0.0
  9
$SKPOLY
 70
     0
  9
$TDCREATE
 40
2460733.009036204
  9
$TDUCREATE
 40
2460732.779869537
  9
$TDUPDATE
 40
2460733.009036215
  9
$TDUUPDATE
 40
2460732.779869549
  9
$TDINDWG
 40
0.0000000116
  9
$TDUSRTIMER
 40
0.0000000116
  9
$USRTIMER
 70
     1
  9
$ANGBASE
 50
0.0
  9
$ANGDIR
 70
     0
  9
$PDMODE
 70
     0
  9
$PDSIZE
 40
0.0
  9
$PLINEWID
 40
0.0
  9
$SPLFRAME
 70
     0
  9
$SPLINETYPE
 70
     6
  9
$SPLINESEGS
 70
     8
  9
$HANDSEED
  5
12E
  9
$SURFTAB1
 70
     6
  9
$SURFTAB2
 70
     6
  9
$SURFTYPE
 70
     6
  9
$SURFU
 70
     6
  9
$SURFV
 70
     6
  9
$UCSBASE
  2

  9
$UCSNAME
  2

  9
$UCSORG
 10
0.0
 20
0.0
 30
0.0
  9
$UCSXDIR
 10
1.0
 20
0.0
 30
0.0
  9
$UCSYDIR
 10
0.0
 20
1.0
 30
0.0
  9
$UCSORTHOREF
  2

  9
$UCSORTHOVIEW
 70
     0
  9
$UCSORGTOP
 10
0.0
 20
0.0
 30
0.0
  9
$UCSORGBOTTOM
 10
0.0
 20
0.0
 30
0.0
  9
$UCSORGLEFT
 10
0.0
 20
0.0
 30
0.0
  9
$UCSORGRIGHT
 10
0.0
 20
0.0
 30
0.0
  9
$UCSORGFRONT
 10
0.0
 20
0.0
 30
0.0
  9
$UCSORGBACK
 10
0.0
 20
0.0
 30
0.0
  9
$PUCSBASE
  2

  9
$PUCSNAME
  2

  9
$PUCSORG
 10
0.0
 20
0.0
 30
0.0
  9
$PUCSXDIR
 10
1.0
 20
0.0
 30
0.0
  9
$PUCSYDIR
 10
0.0
 20
1.0
 30
0.0
  9
$PUCSORTHOREF
  2

  9
$PUCSORTHOVIEW
 70
     0
  9
$PUCSORGTOP
 10
0.0
 20
0.0
 30
0.0
  9
$PUCSORGBOTTOM
 10
0.0
 20
0.0
 30
0.0
  9
$PUCSORGLEFT
 10
0.0
 20
0.0
 30
0.0
  9
$PUCSORGRIGHT
 10
0.0
 20
0.0
 30
0.0
  9
$PUCSORGFRONT
 10
0.0
 20
0.0
 30
0.0
  9
$PUCSORGBACK
 10
0.0
 20
0.0
 30
0.0
  9
$USERI1
 70
     0
  9
$USERI2
 70
     0
  9
$USERI3
 70
     0
  9
$USERI4
 70
     0
  9
$USERI5
 70
     0
  9
$USERR1
 40
0.0
  9
$USERR2
 40
0.0
  9
$USERR3
 40
0.0
  9
$USERR4
 40
0.0
  9
$USERR5
 40
0.0
  9
$WORLDVIEW
 70
     1
  9
$SHADEDGE
 70
     3
  9
$SHADEDIF
 70
    70
  9
$TILEMODE
 70
     1
  9
$MAXACTVP
 70
    64
  9
$PINSBASE
 10
0.0
 20
0.0
 30
0.0
  9
$PLIMCHECK
 70
     0
  9
$PEXTMIN
 10
0.0
 20
0.0
 30
0.0
  9
$PEXTMAX
 10
594.0
 20
420.0
 30
0.0
  9
$PLIMMIN
 10
0.0
 20
0.0
  9
$PLIMMAX
 10
594.0
 20
420.0
  9
$UNITMODE
 70
     0
  9
$VISRETAIN
 70
     1
  9
$PLINEGEN
 70
     0
  9
$PSLTSCALE
 70
     1
  9
$TREEDEPTH
 70
  3020
  9
$CMLSTYLE
  2
Standard
  9
$CMLJUST
 70
     0
  9
$CMLSCALE
 40
1.0
  9
$PROXYGRAPHICS
 70
     1
  9
$MEASUREMENT
 70
     1
  9
$CELWEIGHT
370
    -1
  9
$ENDCAPS
280
     0
  9
$JOINSTYLE
280
     0
  9
$LWDISPLAY
290
     0
  9
$INSUNITS
 70
     1
  9
$HYPERLINKBASE
  1

  9
$STYLESHEET
  1

  9
$XEDIT
290
     1
  9
$CEPSNTYPE
380
     0
  9
$PSTYLEMODE
290
     1
  9
$FINGERPRINTGUID
  2
{7AE5041D-C969-44D3-A4C3-4B29C8687350}
  9
$VERSIONGUID
  2
{FAEB1C32-E019-11D5-929B-00C0DF256EC4}
  9
$EXTNAMES
290
     1
  9
$PSVPSCALE
 40
0.0
  9
$OLESTARTUP
290
     0
  0
ENDSEC
  0
SECTION
  2
CLASSES
  0
CLASS
  1
ACDBDICTIONARYWDFLT
  2
AcDbDictionaryWithDefault
  3
ObjectDBX Classes
 90
        0
280
     0
281
     0
  0
CLASS
  1
ACDBPLACEHOLDER
  2
AcDbPlaceHolder
  3
ObjectDBX Classes
 90
        0
280
     0
281
     0
  0
CLASS
  1
LAYOUT
  2
AcDbLayout
  3
ObjectDBX Classes
 90
        0
280
     0
281
     0
  0
ENDSEC
  0
SECTION
  2
TABLES
  0
TABLE
  2
VPORT
  5
8
330
0
100
AcDbSymbolTable
 70
     1
  0
VPORT
  5
29
330
8
100
AcDbSymbolTableRecord
100
AcDbViewportTableRecord
  2
*Active
 70
     0
 10
0.0
 20
0.0
 11
1.0
 21
1.0
 12
10.4299065421
 22
4.5
 13
0.0
 23
0.0
 14
0.5
 24
0.5
 15
0.5
 25
0.5
 16
0.0
 26
0.0
 36
1.0
 17
0.0
 27
0.0
 37
0.0
 40
9.0
 41
1.9729729729
 42
50.0
 43
0.0
 44
0.0
 50
0.0
 51
0.0
 71
     0
 72
   100
 73
     1
 74
     3
 75
     0
 76
     0
 77
     0
 78
     0
281
     0
 65
     1
110
0.0
120
0.0
130
0.0
111
1.0
121
0.0
131
0.0
112
0.0
122
1.0
132
0.0
 79
     0
146
0.0
  0
ENDTAB
  0
TABLE
  2
LTYPE
  5
5
330
0
100
AcDbSymbolTable
 70
     1
  0
LTYPE
  5
14
330
5
100
AcDbSymbolTableRecord
100
AcDbLinetypeTableRecord
  2
ByBlock
 70
     0
  3

 72
    65
 73
     0
 40
0.0
  0
LTYPE
  5
15
330
5
100
AcDbSymbolTableRecord
100
AcDbLinetypeTableRecord
  2
ByLayer
 70
     0
  3

 72
    65
 73
     0
 40
0.0
  0
LTYPE
  5
16
330
5
100
AcDbSymbolTableRecord
100
AcDbLinetypeTableRecord
  2
Continuous
 70
     0
  3
Solid line
 72
    65
 73
     0
 40
0.0
  0
ENDTAB
  0
TABLE
  2
LAYER
  5
2
330
0
100
AcDbSymbolTable
 70
     2
  0
LAYER
  5
10
330
2
100
AcDbSymbolTableRecord
100
AcDbLayerTableRecord
  2
0
 70
     0
 62
     7
  6
Continuous
370
    -3
390
F
  0
LAYER
  5
2A
330
2
100
AcDbSymbolTableRecord
100
AcDbLayerTableRecord
  2
Default
 70
     0
 62
     7
  6
Continuous
370
    -3
390
F
  0
ENDTAB
  0
TABLE
  2
STYLE
  5
3
330
0
100
AcDbSymbolTable
 70
     1
  0
STYLE
  5
11
330
3
100
AcDbSymbolTableRecord
100
AcDbTextStyleTableRecord
  2
Standard
 70
     0
 40
0.0
 41
1.0
 50
0.0
 71
     0
 42
0.2
  3
txt
  4

  0
ENDTAB
  0
TABLE
  2
VIEW
  5
6
330
0
100
AcDbSymbolTable
 70
     0
  0
ENDTAB
  0
TABLE
  2
UCS
  5
7
330
0
100
AcDbSymbolTable
 70
     0
  0
ENDTAB
  0
TABLE
  2
APPID
  5
9
330
0
100
AcDbSymbolTable
 70
     1
  0
APPID
  5
12
330
9
100
AcDbSymbolTableRecord
100
AcDbRegAppTableRecord
  2
ACAD
 70
     0
  0
ENDTAB
  0
TABLE
  2
DIMSTYLE
  5
A
330
0
100
AcDbSymbolTable
 70
     1
100
AcDbDimStyleTable
  0
DIMSTYLE
105
27
330
A
100
AcDbSymbolTableRecord
100
AcDbDimStyleTableRecord
  2
Standard
 70
     0
340
11
  0
ENDTAB
  0
TABLE
  2
BLOCK_RECORD
  5
1
330
0
100
AcDbSymbolTable
 70
     1
  0
BLOCK_RECORD
  5
1F
330
1
100
AcDbSymbolTableRecord
100
AcDbBlockTableRecord
  2
*Model_Space
340
22
  0
BLOCK_RECORD
  5
1B
330
1
100
AcDbSymbolTableRecord
100
AcDbBlockTableRecord
  2
*Paper_Space
340
1E
  0
ENDTAB
  0
ENDSEC
  0
SECTION
  2
BLOCKS
  0
BLOCK
  5
20
330
1F
100
AcDbEntity
  8
0
100
AcDbBlockBegin
  2
*Model_Space
 70
     0
 71
     0
 10
0.0
 20
0.0
 30
0.0
  3
*Model_Space
  1

  0
ENDBLK
  5
21
330
1F
100
AcDbEntity
  8
0
100
AcDbBlockEnd
  0
BLOCK
  5
1C
330
1B
100
AcDbEntity
 67
     1
  8
0
100
AcDbBlockBegin
  2
*Paper_Space
 70
     0
 71
     0
 10
0.0
 20
0.0
 30
0.0
  3
*Paper_Space
  1

  0
ENDBLK
  5
1D
330
1B
100
AcDbEntity
 67
     1
  8
0
100
AcDbBlockEnd
  0
ENDSEC
  0
SECTION
  2
ENTITIES
  0
LINE
  5
2B
330
1F
100
AcDbEntity
  8
Default
  6
Continuous
 62
     7
 48
25.4
100
AcDbLine
 10
2.0870867557
 20
417.0998887146
 30
0.0
 11
62.0870867557
 21
417.0998887146
 31
0.0
  0
LINE
  5
2C
330
1F
100
AcDbEntity
  8
Default
  6
Continuous
 62
     7
 48
25.4
100
AcDbLine
 10
62.0870867557
 20
417.0998887146
 30
0.0
 11
62.0870867557
 21
357.0998887146
 31
0.0
  0
LINE
  5
2D
330
1F
100
AcDbEntity
  8
Default
  6
Continuous
 62
     7
 48
25.4
100
AcDbLine
 10
62.0870867557
 20
357.0998887146
 30
0.0
 11
2.0870867557
 21
357.0998887146
 31
0.0
  0
LINE
  5
2E
330
1F
100
AcDbEntity
  8
Default
  6
Continuous
 62
     7
 48
25.4
100
AcDbLine
 10
2.0870867557
 20
357.0998887146
 30
0.0
 11
2.0870867557
 21
417.0998887146
 31
0.0
  0
CIRCLE
  5
2F
330
1F
100
AcDbEntity
  8
Default
  6
Continuous
 62
     7
 48
25.4
100
AcDbCircle
 10
32.0870867557
 20
363.519060188
 30
0.0
 40
1.0
  0
LINE
  5
30
330
1F
100
AcDbEntity
  8
Default
  6
Continuous
 62
     7
 48
25.4
100
AcDbLine
 10
65.3422315441
 20
417.0998887146
 30
0.0
 11
125.3422315441
 21
417.0998887146
 31
0.0
  0
LINE
  5
31
330
1F
100
AcDbEntity
  8
Default
  6
Continuous
 62
     7
 48
25.4
100
AcDbLine
 10
125.3422315441
 20
417.0998887146
 30
0.0
 11
125.3422315441
 21
357.0998887146
 31
0.0
  0
LINE
  5
32
330
1F
100
AcDbEntity
  8
Default
  6
Continuous
 62
     7
 48
25.4
100
AcDbLine
 10
125.3422315441
 20
357.0998887146
 30
0.0
 11
65.3422315441
 21
357.0998887146
 31
0.0
  0
LINE
  5
33
330
1F
100
AcDbEntity
  8
Default
  6
Continuous
 62
     7
 48
25.4
100
AcDbLine
 10
65.3422315441
 20
357.0998887146
 30
0.0
 11
65.3422315441
 21
417.0998887146
 31
0.0
  0
CIRCLE
  5
34
330
1F
100
AcDbEntity
  8
Default
  6
Continuous
 62
     7
 48
25.4
100
AcDbCircle
 10
95.3422315441
 20
363.519060188
 30
0.0
 40
1.0
  0
LINE
  5
35
330
1F
100
AcDbEntity
  8
Default
  6
Continuous
 62
     7
 48
25.4
100
AcDbLine
 10
127.8531981584
 20
417.0998887146
 30
0.0
 11
187.8531981584
 21
417.0998887146
 31
0.0
  0
LINE
  5
36
330
1F
100
AcDbEntity
  8
Default
  6
Continuous
 62
     7
 48
25.4
100
AcDbLine
 10
187.8531981584
 20
417.0998887146
 30
0.0
 11
187.8531981584
 21
357.0998887146
 31
0.0
  0
LINE
  5
37
330
1F
100
AcDbEntity
  8
Default
  6
Continuous
 62
     7
 48
25.4
100
AcDbLine
 10
187.8531981584
 20
357.0998887146
 30
0.0
 11
127.8531981584
 21
357.0998887146
 31
0.0
  0
LINE
  5
38
330
1F
100
AcDbEntity
  8
Default
  6
Continuous
 62
     7
 48
25.4
100
AcDbLine
 10
127.8531981584
 20
357.0998887146
 30
0.0
 11
127.8531981584
 21
417.0998887146
 31
0.0
  0
CIRCLE
  5
39
330
1F
100
AcDbEntity
  8
Default
  6
Continuous
 62
     7
 48
25.4
100
AcDbCircle
 10
157.8531981584
 20
363.519060188
 30
0.0
 40
1.0
  0
LINE
  5
3A
330
1F
100
AcDbEntity
  8
Default
  6
Continuous
 62
     7
 48
25.4
100
AcDbLine
 10
191.8525211208
 20
417.0998887146
 30
0.0
 11
251.8525211208
 21
417.0998887146
 31
0.0
  0
LINE
  5
3B
330
1F
100
AcDbEntity
  8
Default
  6
Continuous
 62
     7
 48
25.4
100
AcDbLine
 10
251.8525211208
 20
417.0998887146
 30
0.0
 11
251.8525211208
 21
357.0998887146
 31
0.0
  0
LINE
  5
3C
330
1F
100
AcDbEntity
  8
Default
  6
Continuous
 62
     7
 48
25.4
100
AcDbLine
 10
251.8525211208
 20
357.0998887146
 30
0.0
 11
191.8525211208
 21
357.0998887146
 31
0.0
  0
LINE
  5
3D
330
1F
100
AcDbEntity
  8
Default
  6
Continuous
 62
     7
 48
25.4
100
AcDbLine
 10
191.8525211208
 20
357.0998887146
 30
0.0
 11
191.8525211208
 21
417.0998887146
 31
0.0
  0
LINE
  5
3E
330
1F
100
AcDbEntity
  8
Default
  6
Continuous
 62
     7
 48
25.4
100
AcDbLine
 10
255.8518440831
 20
416.3557105406
 30
0.0
 11
315.8518440831
 21
416.3557105406
 31
0.0
  0
LINE
  5
3F
330
1F
100
AcDbEntity
  8
Default
  6
Continuous
 62
     7
 48
25.4
100
AcDbLine
 10
315.8518440831
 20
416.3557105406
 30
0.0
 11
315.8518440831
 21
356.3557105406
 31
0.0
  0
LINE
  5
40
330
1F
100
AcDbEntity
  8
Default
  6
Continuous
 62
     7
 48
25.4
100
AcDbLine
 10
315.8518440831
 20
356.3557105406
 30
0.0
 11
255.8518440831
 21
356.3557105406
 31
0.0
  0
LINE
  5
41
330
1F
100
AcDbEntity
  8
Default
  6
Continuous
 62
     7
 48
25.4
100
AcDbLine
 10
255.8518440831
 20
356.3557105406
 30
0.0
 11
255.8518440831
 21
416.3557105406
 31
0.0
  0
LINE
  5
42
330
1F
100
AcDbEntity
  8
Default
  6
Continuous
 62
     7
 48
25.4
100
AcDbLine
 10
191.8525211208
 20
417.0998887146
 30
0.0
 11
251.8525211208
 21
417.0998887146
 31
0.0
  0
LINE
  5
43
330
1F
100
AcDbEntity
  8
Default
  6
Continuous
 62
     7
 48
25.4
100
AcDbLine
 10
251.8525211208
 20
417.0998887146
 30
0.0
 11
251.8525211208
 21
357.0998887146
 31
0.0
  0
LINE
  5
44
330
1F
100
AcDbEntity
  8
Default
  6
Continuous
 62
     7
 48
25.4
100
AcDbLine
 10
251.8525211208
 20
357.0998887146
 30
0.0
 11
191.8525211208
 21
357.0998887146
 31
0.0
  0
LINE
  5
45
330
1F
100
AcDbEntity
  8
Default
  6
Continuous
 62
     7
 48
25.4
100
AcDbLine
 10
191.8525211208
 20
357.0998887146
 30
0.0
 11
191.8525211208
 21
417.0998887146
 31
0.0
  0
LINE
  5
46
330
1F
100
AcDbEntity
  8
Default
  6
Continuous
 62
     7
 48
25.4
100
AcDbLine
 10
319.1069888715
 20
415.6115323666
 30
0.0
 11
379.1069888715
 21
415.6115323666
 31
0.0
  0
LINE
  5
47
330
1F
100
AcDbEntity
  8
Default
  6
Continuous
 62
     7
 48
25.4
100
AcDbLine
 10
379.1069888715
 20
415.6115323666
 30
0.0
 11
379.1069888715
 21
355.6115323666
 31
0.0
  0
LINE
  5
48
330
1F
100
AcDbEntity
  8
Default
  6
Continuous
 62
     7
 48
25.4
100
AcDbLine
 10
379.1069888715
 20
355.6115323666
 30
0.0
 11
319.1069888715
 21
355.6115323666
 31
0.0
  0
LINE
  5
49
330
1F
100
AcDbEntity
  8
Default
  6
Continuous
 62
     7
 48
25.4
100
AcDbLine
 10
319.1069888715
 20
355.6115323666
 30
0.0
 11
319.1069888715
 21
415.6115323666
 31
0.0
  0
LINE
  5
4A
330
1F
100
AcDbEntity
  8
Default
  6
Continuous
 62
     7
 48
25.4
100
AcDbLine
 10
127.8531981584
 20
353.8447439262
 30
0.0
 11
187.8531981584
 21
353.8447439262
 31
0.0
  0
LINE
  5
4B
330
1F
100
AcDbEntity
  8
Default
  6
Continuous
 62
     7
 48
25.4
100
AcDbLine
 10
187.8531981584
 20
353.8447439262
 30
0.0
 11
187.8531981584
 21
298.8447439262
 31
0.0
  0
LINE
  5
4C
330
1F
100
AcDbEntity
  8
Default
  6
Continuous
 62
     7
 48
25.4
100
AcDbLine
 10
187.8531981584
 20
298.8447439262
 30
0.0
 11
127.8531981584
 21
298.8447439262
 31
0.0
  0
LINE
  5
4D
330
1F
100
AcDbEntity
  8
Default
  6
Continuous
 62
     7
 48
25.4
100
AcDbLine
 10
127.8531981584
 20
298.8447439262
 30
0.0
 11
127.8531981584
 21
353.8447439262
 31
0.0
  0
LINE
  5
4E
330
1F
100
AcDbEntity
  8
Default
  6
Continuous
 62
     7
 48
25.4
100
AcDbLine
 10
381.6179554858
 20
415.6115323666
 30
0.0
 11
441.6179554858
 21
415.6115323666
 31
0.0
  0
LINE
  5
4F
330
1F
100
AcDbEntity
  8
Default
  6
Continuous
 62
     7
 48
25.4
100
AcDbLine
 10
441.6179554858
 20
415.6115323666
 30
0.0
 11
441.6179554858
 21
360.6115323666
 31
0.0
  0
LINE
  5
50
330
1F
100
AcDbEntity
  8
Default
  6
Continuous
 62
     7
 48
25.4
100
AcDbLine
 10
441.6179554858
 20
360.6115323666
 30
0.0
 11
381.6179554858
 21
360.6115323666
 31
0.0
  0
LINE
  5
51
330
1F
100
AcDbEntity
  8
Default
  6
Continuous
 62
     7
 48
25.4
100
AcDbLine
 10
381.6179554858
 20
360.6115323666
 30
0.0
 11
381.6179554858
 21
415.6115323666
 31
0.0
  0
LINE
  5
52
330
1F
100
AcDbEntity
  8
Default
  6
Continuous
 62
     7
 48
25.4
100
AcDbLine
 10
445.6172784482
 20
417.0998887146
 30
0.0
 11
505.6172784482
 21
417.0998887146
 31
0.0
  0
LINE
  5
53
330
1F
100
AcDbEntity
  8
Default
  6
Continuous
 62
     7
 48
25.4
100
AcDbLine
 10
505.6172784482
 20
417.0998887146
 30
0.0
 11
505.6172784482
 21
362.0998887146
 31
0.0
  0
LINE
  5
54
330
1F
100
AcDbEntity
  8
Default
  6
Continuous
 62
     7
 48
25.4
100
AcDbLine
 10
505.6172784482
 20
362.0998887146
 30
0.0
 11
445.6172784482
 21
362.0998887146
 31
0.0
  0
LINE
  5
55
330
1F
100
AcDbEntity
  8
Default
  6
Continuous
 62
     7
 48
25.4
100
AcDbLine
 10
445.6172784482
 20
362.0998887146
 30
0.0
 11
445.6172784482
 21
417.0998887146
 31
0.0
  0
LINE
  5
56
330
1F
100
AcDbEntity
  8
Default
  6
Continuous
 62
     7
 48
25.4
100
AcDbLine
 10
508.8724232365
 20
415.6115323666
 30
0.0
 11
568.8724232365
 21
415.6115323666
 31
0.0
  0
LINE
  5
57
330
1F
100
AcDbEntity
  8
Default
  6
Continuous
 62
     7
 48
25.4
100
AcDbLine
 10
568.8724232365
 20
415.6115323666
 30
0.0
 11
568.8724232365
 21
360.6115323666
 31
0.0
  0
LINE
  5
58
330
1F
100
AcDbEntity
  8
Default
  6
Continuous
 62
     7
 48
25.4
100
AcDbLine
 10
568.8724232365
 20
360.6115323666
 30
0.0
 11
508.8724232365
 21
360.6115323666
 31
0.0
  0
LINE
  5
59
330
1F
100
AcDbEntity
  8
Default
  6
Continuous
 62
     7
 48
25.4
100
AcDbLine
 10
508.8724232365
 20
360.6115323666
 30
0.0
 11
508.8724232365
 21
415.6115323666
 31
0.0
  0
LINE
  5
5A
330
1F
100
AcDbEntity
  8
Default
  6
Continuous
 62
     7
 48
25.4
100
AcDbLine
 10
1.3429085817
 20
353.8447439262
 30
0.0
 11
61.3429085817
 21
353.8447439262
 31
0.0
  0
LINE
  5
5B
330
1F
100
AcDbEntity
  8
Default
  6
Continuous
 62
     7
 48
25.4
100
AcDbLine
 10
61.3429085817
 20
353.8447439262
 30
0.0
 11
61.3429085817
 21
298.8447439262
 31
0.0
  0
LINE
  5
5C
330
1F
100
AcDbEntity
  8
Default
  6
Continuous
 62
     7
 48
25.4
100
AcDbLine
 10
61.3429085817
 20
298.8447439262
 30
0.0
 11
1.3429085817
 21
298.8447439262
 31
0.0
  0
LINE
  5
5D
330
1F
100
AcDbEntity
  8
Default
  6
Continuous
 62
     7
 48
25.4
100
AcDbLine
 10
1.3429085817
 20
298.8447439262
 30
0.0
 11
1.3429085817
 21
353.8447439262
 31
0.0
  0
LINE
  5
5E
330
1F
100
AcDbEntity
  8
Default
  6
Continuous
 62
     7
 48
25.4
100
AcDbLine
 10
64.5980533701
 20
353.8447439262
 30
0.0
 11
124.5980533701
 21
353.8447439262
 31
0.0
  0
LINE
  5
5F
330
1F
100
AcDbEntity
  8
Default
  6
Continuous
 62
     7
 48
25.4
100
AcDbLine
 10
124.5980533701
 20
353.8447439262
 30
0.0
 11
124.5980533701
 21
298.8447439262
 31
0.0
  0
LINE
  5
60
330
1F
100
AcDbEntity
  8
Default
  6
Continuous
 62
     7
 48
25.4
100
AcDbLine
 10
124.5980533701
 20
298.8447439262
 30
0.0
 11
64.5980533701
 21
298.8447439262
 31
0.0
  0
LINE
  5
61
330
1F
100
AcDbEntity
  8
Default
  6
Continuous
 62
     7
 48
25.4
100
AcDbLine
 10
64.5980533701
 20
298.8447439262
 30
0.0
 11
64.5980533701
 21
353.8447439262
 31
0.0
  0
LINE
  5
62
330
1F
100
AcDbEntity
  8
Default
  6
Continuous
 62
     7
 48
25.4
100
AcDbLine
 10
480.5936526253
 20
358.3098129701
 30
0.0
 11
535.5936526253
 21
358.3098129701
 31
0.0
  0
LINE
  5
63
330
1F
100
AcDbEntity
  8
Default
  6
Continuous
 62
     7
 48
25.4
100
AcDbLine
 10
535.5936526253
 20
358.3098129701
 30
0.0
 11
535.5936526253
 21
308.3098129701
 31
0.0
  0
LINE
  5
64
330
1F
100
AcDbEntity
  8
Default
  6
Continuous
 62
     7
 48
25.4
100
AcDbLine
 10
480.5936526253
 20
358.3098129701
 30
0.0
 11
480.5936526253
 21
308.3098129701
 31
0.0
  0
LINE
  5
65
330
1F
100
AcDbEntity
  8
Default
  6
Continuous
 62
     7
 48
25.4
100
AcDbLine
 10
480.5936526253
 20
308.3098129701
 30
0.0
 11
535.5936526253
 21
308.3098129701
 31
0.0
  0
LINE
  5
66
330
1F
100
AcDbEntity
  8
Default
  6
Continuous
 62
     7
 48
25.4
100
AcDbLine
 10
191.1083429468
 20
353.8447439262
 30
0.0
 11
246.1083429468
 21
353.8447439262
 31
0.0
  0
LINE
  5
67
330
1F
100
AcDbEntity
  8
Default
  6
Continuous
 62
     7
 48
25.4
100
AcDbLine
 10
246.1083429468
 20
353.8447439262
 30
0.0
 11
246.1083429468
 21
303.8447439262
 31
0.0
  0
LINE
  5
68
330
1F
100
AcDbEntity
  8
Default
  6
Continuous
 62
     7
 48
25.4
100
AcDbLine
 10
191.1083429468
 20
353.8447439262
 30
0.0
 11
191.1083429468
 21
303.8447439262
 31
0.0
  0
LINE
  5
69
330
1F
100
AcDbEntity
  8
Default
  6
Continuous
 62
     7
 48
25.4
100
AcDbLine
 10
191.1083429468
 20
303.8447439262
 30
0.0
 11
246.1083429468
 21
303.8447439262
 31
0.0
  0
LINE
  5
6A
330
1F
100
AcDbEntity
  8
Default
  6
Continuous
 62
     7
 48
25.4
100
AcDbLine
 10
249.8984186913
 20
353.1005657522
 30
0.0
 11
304.8984186913
 21
353.1005657522
 31
0.0
  0
LINE
  5
6B
330
1F
100
AcDbEntity
  8
Default
  6
Continuous
 62
     7
 48
25.4
100
AcDbLine
 10
304.8984186913
 20
353.1005657522
 30
0.0
 11
304.8984186913
 21
303.1005657522
 31
0.0
  0
LINE
  5
6C
330
1F
100
AcDbEntity
  8
Default
  6
Continuous
 62
     7
 48
25.4
100
AcDbLine
 10
249.8984186913
 20
353.1005657522
 30
0.0
 11
249.8984186913
 21
303.1005657522
 31
0.0
  0
LINE
  5
6D
330
1F
100
AcDbEntity
  8
Default
  6
Continuous
 62
     7
 48
25.4
100
AcDbLine
 10
249.8984186913
 20
303.1005657522
 30
0.0
 11
304.8984186913
 21
303.1005657522
 31
0.0
  0
LINE
  5
6E
330
1F
100
AcDbEntity
  8
Default
  6
Continuous
 62
     7
 48
25.4
100
AcDbLine
 10
307.9443162617
 20
353.1005657522
 30
0.0
 11
362.9443162617
 21
353.1005657522
 31
0.0
  0
LINE
  5
6F
330
1F
100
AcDbEntity
  8
Default
  6
Continuous
 62
     7
 48
25.4
100
AcDbLine
 10
362.9443162617
 20
353.1005657522
 30
0.0
 11
362.9443162617
 21
303.1005657522
 31
0.0
  0
LINE
  5
70
330
1F
100
AcDbEntity
  8
Default
  6
Continuous
 62
     7
 48
25.4
100
AcDbLine
 10
307.9443162617
 20
353.1005657522
 30
0.0
 11
307.9443162617
 21
303.1005657522
 31
0.0
  0
LINE
  5
71
330
1F
100
AcDbEntity
  8
Default
  6
Continuous
 62
     7
 48
25.4
100
AcDbLine
 10
307.9443162617
 20
303.1005657522
 30
0.0
 11
362.9443162617
 21
303.1005657522
 31
0.0
  0
LINE
  5
72
330
1F
100
AcDbEntity
  8
Default
  6
Continuous
 62
     7
 48
25.4
100
AcDbLine
 10
365.9902138322
 20
353.1005657522
 30
0.0
 11
420.9902138322
 21
353.1005657522
 31
0.0
  0
LINE
  5
73
330
1F
100
AcDbEntity
  8
Default
  6
Continuous
 62
     7
 48
25.4
100
AcDbLine
 10
420.9902138322
 20
353.1005657522
 30
0.0
 11
420.9902138322
 21
303.1005657522
 31
0.0
  0
LINE
  5
74
330
1F
100
AcDbEntity
  8
Default
  6
Continuous
 62
     7
 48
25.4
100
AcDbLine
 10
365.9902138322
 20
353.1005657522
 30
0.0
 11
365.9902138322
 21
303.1005657522
 31
0.0
  0
LINE
  5
75
330
1F
100
AcDbEntity
  8
Default
  6
Continuous
 62
     7
 48
25.4
100
AcDbLine
 10
365.9902138322
 20
303.1005657522
 30
0.0
 11
420.9902138322
 21
303.1005657522
 31
0.0
  0
LINE
  5
76
330
1F
100
AcDbEntity
  8
Default
  6
Continuous
 62
     7
 48
25.4
100
AcDbLine
 10
423.2919332288
 20
358.3098129701
 30
0.0
 11
478.2919332288
 21
358.3098129701
 31
0.0
  0
LINE
  5
77
330
1F
100
AcDbEntity
  8
Default
  6
Continuous
 62
     7
 48
25.4
100
AcDbLine
 10
478.2919332288
 20
358.3098129701
 30
0.0
 11
478.2919332288
 21
308.3098129701
 31
0.0
  0
LINE
  5
78
330
1F
100
AcDbEntity
  8
Default
  6
Continuous
 62
     7
 48
25.4
100
AcDbLine
 10
423.2919332288
 20
358.3098129701
 30
0.0
 11
423.2919332288
 21
308.3098129701
 31
0.0
  0
LINE
  5
79
330
1F
100
AcDbEntity
  8
Default
  6
Continuous
 62
     7
 48
25.4
100
AcDbLine
 10
423.2919332288
 20
308.3098129701
 30
0.0
 11
478.2919332288
 21
308.3098129701
 31
0.0
  0
LINE
  5
7A
330
1F
100
AcDbEntity
  8
Default
  6
Continuous
 62
     7
 48
25.4
100
AcDbLine
 10
573.3368152427
 20
363.2399510579
 30
0.0
 11
573.3368152427
 21
415.2399510579
 31
0.0
  0
LINE
  5
7B
330
1F
100
AcDbEntity
  8
Default
  6
Continuous
 62
     7
 48
25.4
100
AcDbLine
 10
573.3368152427
 20
415.2399510579
 30
0.0
 11
577.3368152427
 21
415.2399510579
 31
0.0
  0
LINE
  5
7C
330
1F
100
AcDbEntity
  8
Default
  6
Continuous
 62
     7
 48
25.4
100
AcDbLine
 10
577.3368152427
 20
415.2399510579
 30
0.0
 11
577.3368152427
 21
363.2399510579
 31
0.0
  0
LINE
  5
7D
330
1F
100
AcDbEntity
  8
Default
  6
Continuous
 62
     7
 48
25.4
100
AcDbLine
 10
577.3368152427
 20
363.2399510579
 30
0.0
 11
573.3368152427
 21
363.2399510579
 31
0.0
  0
LINE
  5
7E
330
1F
100
AcDbEntity
  8
Default
  6
Continuous
 62
     7
 48
25.4
100
AcDbLine
 10
579.2902406346
 20
363.2399510579
 30
0.0
 11
579.2902406346
 21
415.2399510579
 31
0.0
  0
LINE
  5
7F
330
1F
100
AcDbEntity
  8
Default
  6
Continuous
 62
     7
 48
25.4
100
AcDbLine
 10
579.2902406346
 20
415.2399510579
 30
0.0
 11
583.2902406346
 21
415.2399510579
 31
0.0
  0
LINE
  5
80
330
1F
100
AcDbEntity
  8
Default
  6
Continuous
 62
     7
 48
25.4
100
AcDbLine
 10
583.2902406346
 20
415.2399510579
 30
0.0
 11
583.2902406346
 21
363.2399510579
 31
0.0
  0
LINE
  5
81
330
1F
100
AcDbEntity
  8
Default
  6
Continuous
 62
     7
 48
25.4
100
AcDbLine
 10
583.2902406346
 20
363.2399510579
 30
0.0
 11
579.2902406346
 21
363.2399510579
 31
0.0
  0
LINE
  5
82
330
1F
100
AcDbEntity
  8
Default
  6
Continuous
 62
     7
 48
25.4
100
AcDbLine
 10
585.9878442004
 20
362.4957728839
 30
0.0
 11
585.9878442004
 21
414.4957728839
 31
0.0
  0
LINE
  5
83
330
1F
100
AcDbEntity
  8
Default
  6
Continuous
 62
     7
 48
25.4
100
AcDbLine
 10
585.9878442004
 20
414.4957728839
 30
0.0
 11
589.9878442004
 21
414.4957728839
 31
0.0
  0
LINE
  5
84
330
1F
100
AcDbEntity
  8
Default
  6
Continuous
 62
     7
 48
25.4
100
AcDbLine
 10
589.9878442004
 20
414.4957728839
 30
0.0
 11
589.9878442004
 21
362.4957728839
 31
0.0
  0
LINE
  5
85
330
1F
100
AcDbEntity
  8
Default
  6
Continuous
 62
     7
 48
25.4
100
AcDbLine
 10
589.9878442004
 20
362.4957728839
 30
0.0
 11
585.9878442004
 21
362.4957728839
 31
0.0
  0
LINE
  5
86
330
1F
100
AcDbEntity
  8
Default
  6
Continuous
 62
     7
 48
25.4
100
AcDbLine
 10
538.3604410657
 20
305.9382316614
 30
0.0
 11
538.3604410657
 21
357.9382316614
 31
0.0
  0
LINE
  5
87
330
1F
100
AcDbEntity
  8
Default
  6
Continuous
 62
     7
 48
25.4
100
AcDbLine
 10
538.3604410657
 20
357.9382316614
 30
0.0
 11
542.3604410657
 21
357.9382316614
 31
0.0
  0
LINE
  5
88
330
1F
100
AcDbEntity
  8
Default
  6
Continuous
 62
     7
 48
25.4
100
AcDbLine
 10
542.3604410657
 20
357.9382316614
 30
0.0
 11
542.3604410657
 21
305.9382316614
 31
0.0
  0
LINE
  5
89
330
1F
100
AcDbEntity
  8
Default
  6
Continuous
 62
     7
 48
25.4
100
AcDbLine
 10
542.3604410657
 20
305.9382316614
 30
0.0
 11
538.3604410657
 21
305.9382316614
 31
0.0
  0
LINE
  5
8A
330
1F
100
AcDbEntity
  8
Default
  6
Continuous
 62
     7
 48
25.4
100
AcDbLine
 10
544.3138664575
 20
305.9382316614
 30
0.0
 11
544.3138664575
 21
357.9382316614
 31
0.0
  0
LINE
  5
8B
330
1F
100
AcDbEntity
  8
Default
  6
Continuous
 62
     7
 48
25.4
100
AcDbLine
 10
544.3138664575
 20
357.9382316614
 30
0.0
 11
548.3138664575
 21
357.9382316614
 31
0.0
  0
LINE
  5
8C
330
1F
100
AcDbEntity
  8
Default
  6
Continuous
 62
     7
 48
25.4
100
AcDbLine
 10
548.3138664575
 20
357.9382316614
 30
0.0
 11
548.3138664575
 21
305.9382316614
 31
0.0
  0
LINE
  5
8D
330
1F
100
AcDbEntity
  8
Default
  6
Continuous
 62
     7
 48
25.4
100
AcDbLine
 10
548.3138664575
 20
305.9382316614
 30
0.0
 11
544.3138664575
 21
305.9382316614
 31
0.0
  0
LINE
  5
8E
330
1F
100
AcDbEntity
  8
Default
  6
Continuous
 62
     7
 48
25.4
100
AcDbLine
 10
551.0114700233
 20
305.1940534874
 30
0.0
 11
551.0114700233
 21
357.1940534874
 31
0.0
  0
LINE
  5
8F
330
1F
100
AcDbEntity
  8
Default
  6
Continuous
 62
     7
 48
25.4
100
AcDbLine
 10
551.0114700233
 20
357.1940534874
 30
0.0
 11
555.0114700233
 21
357.1940534874
 31
0.0
  0
LINE
  5
90
330
1F
100
AcDbEntity
  8
Default
  6
Continuous
 62
     7
 48
25.4
100
AcDbLine
 10
555.0114700233
 20
357.1940534874
 30
0.0
 11
555.0114700233
 21
305.1940534874
 31
0.0
  0
LINE
  5
91
330
1F
100
AcDbEntity
  8
Default
  6
Continuous
 62
     7
 48
25.4
100
AcDbLine
 10
555.0114700233
 20
305.1940534874
 30
0.0
 11
551.0114700233
 21
305.1940534874
 31
0.0
  0
LINE
  5
92
330
1F
100
AcDbEntity
  8
Default
  6
Continuous
 62
     7
 48
25.4
100
AcDbLine
 10
558.4532517631
 20
306.6824098354
 30
0.0
 11
558.4532517631
 21
358.6824098354
 31
0.0
  0
LINE
  5
93
330
1F
100
AcDbEntity
  8
Default
  6
Continuous
 62
     7
 48
25.4
100
AcDbLine
 10
558.4532517631
 20
358.6824098354
 30
0.0
 11
562.4532517631
 21
358.6824098354
 31
0.0
  0
LINE
  5
94
330
1F
100
AcDbEntity
  8
Default
  6
Continuous
 62
     7
 48
25.4
100
AcDbLine
 10
562.4532517631
 20
358.6824098354
 30
0.0
 11
562.4532517631
 21
306.6824098354
 31
0.0
  0
LINE
  5
95
330
1F
100
AcDbEntity
  8
Default
  6
Continuous
 62
     7
 48
25.4
100
AcDbLine
 10
562.4532517631
 20
306.6824098354
 30
0.0
 11
558.4532517631
 21
306.6824098354
 31
0.0
  0
LINE
  5
96
330
1F
100
AcDbEntity
  8
Default
  6
Continuous
 62
     7
 48
25.4
100
AcDbLine
 10
564.406677155
 20
306.6824098354
 30
0.0
 11
564.406677155
 21
358.6824098354
 31
0.0
  0
LINE
  5
97
330
1F
100
AcDbEntity
  8
Default
  6
Continuous
 62
     7
 48
25.4
100
AcDbLine
 10
564.406677155
 20
358.6824098354
 30
0.0
 11
568.406677155
 21
358.6824098354
 31
0.0
  0
LINE
  5
98
330
1F
100
AcDbEntity
  8
Default
  6
Continuous
 62
     7
 48
25.4
100
AcDbLine
 10
568.406677155
 20
358.6824098354
 30
0.0
 11
568.406677155
 21
306.6824098354
 31
0.0
  0
LINE
  5
99
330
1F
100
AcDbEntity
  8
Default
  6
Continuous
 62
     7
 48
25.4
100
AcDbLine
 10
568.406677155
 20
306.6824098354
 30
0.0
 11
564.406677155
 21
306.6824098354
 31
0.0
  0
LINE
  5
9A
330
1F
100
AcDbEntity
  8
Default
  6
Continuous
 62
     7
 48
25.4
100
AcDbLine
 10
571.1042807208
 20
305.9382316614
 30
0.0
 11
571.1042807208
 21
357.9382316614
 31
0.0
  0
LINE
  5
9B
330
1F
100
AcDbEntity
  8
Default
  6
Continuous
 62
     7
 48
25.4
100
AcDbLine
 10
571.1042807208
 20
357.9382316614
 30
0.0
 11
575.1042807208
 21
357.9382316614
 31
0.0
  0
LINE
  5
9C
330
1F
100
AcDbEntity
  8
Default
  6
Continuous
 62
     7
 48
25.4
100
AcDbLine
 10
575.1042807208
 20
357.9382316614
 30
0.0
 11
575.1042807208
 21
305.9382316614
 31
0.0
  0
LINE
  5
9D
330
1F
100
AcDbEntity
  8
Default
  6
Continuous
 62
     7
 48
25.4
100
AcDbLine
 10
575.1042807208
 20
305.9382316614
 30
0.0
 11
571.1042807208
 21
305.9382316614
 31
0.0
  0
LINE
  5
9E
330
1F
100
AcDbEntity
  8
Default
  6
Continuous
 62
     7
 48
25.4
100
AcDbLine
 10
1.8079776256
 20
244.171443221
 30
0.0
 11
1.8079776256
 21
296.171443221
 31
0.0
  0
LINE
  5
9F
330
1F
100
AcDbEntity
  8
Default
  6
Continuous
 62
     7
 48
25.4
100
AcDbLine
 10
1.8079776256
 20
296.171443221
 30
0.0
 11
5.8079776256
 21
296.171443221
 31
0.0
  0
LINE
  5
A0
330
1F
100
AcDbEntity
  8
Default
  6
Continuous
 62
     7
 48
25.4
100
AcDbLine
 10
5.8079776256
 20
296.171443221
 30
0.0
 11
5.8079776256
 21
244.171443221
 31
0.0
  0
LINE
  5
A1
330
1F
100
AcDbEntity
  8
Default
  6
Continuous
 62
     7
 48
25.4
100
AcDbLine
 10
5.8079776256
 20
244.171443221
 30
0.0
 11
1.8079776256
 21
244.171443221
 31
0.0
  0
LINE
  5
A2
330
1F
100
AcDbEntity
  8
Default
  6
Continuous
 62
     7
 48
25.4
100
AcDbLine
 10
7.7614030174
 20
244.171443221
 30
0.0
 11
7.7614030174
 21
296.171443221
 31
0.0
  0
LINE
  5
A3
330
1F
100
AcDbEntity
  8
Default
  6
Continuous
 62
     7
 48
25.4
100
AcDbLine
 10
7.7614030174
 20
296.171443221
 30
0.0
 11
11.7614030174
 21
296.171443221
 31
0.0
  0
LINE
  5
A4
330
1F
100
AcDbEntity
  8
Default
  6
Continuous
 62
     7
 48
25.4
100
AcDbLine
 10
11.7614030174
 20
296.171443221
 30
0.0
 11
11.7614030174
 21
244.171443221
 31
0.0
  0
LINE
  5
A5
330
1F
100
AcDbEntity
  8
Default
  6
Continuous
 62
     7
 48
25.4
100
AcDbLine
 10
11.7614030174
 20
244.171443221
 30
0.0
 11
7.7614030174
 21
244.171443221
 31
0.0
  0
LINE
  5
A6
330
1F
100
AcDbEntity
  8
Default
  6
Continuous
 62
     7
 48
25.4
100
AcDbLine
 10
14.4590065833
 20
243.427265047
 30
0.0
 11
14.4590065833
 21
295.427265047
 31
0.0
  0
LINE
  5
A7
330
1F
100
AcDbEntity
  8
Default
  6
Continuous
 62
     7
 48
25.4
100
AcDbLine
 10
14.4590065833
 20
295.427265047
 30
0.0
 11
18.4590065833
 21
295.427265047
 31
0.0
  0
LINE
  5
A8
330
1F
100
AcDbEntity
  8
Default
  6
Continuous
 62
     7
 48
25.4
100
AcDbLine
 10
18.4590065833
 20
295.427265047
 30
0.0
 11
18.4590065833
 21
243.427265047
 31
0.0
  0
LINE
  5
A9
330
1F
100
AcDbEntity
  8
Default
  6
Continuous
 62
     7
 48
25.4
100
AcDbLine
 10
18.4590065833
 20
243.427265047
 30
0.0
 11
14.4590065833
 21
243.427265047
 31
0.0
  0
LINE
  5
AA
330
1F
100
AcDbEntity
  8
Default
  6
Continuous
 62
     7
 48
25.4
100
AcDbLine
 10
21.1566101491
 20
243.427265047
 30
0.0
 11
21.1566101491
 21
295.427265047
 31
0.0
  0
LINE
  5
AB
330
1F
100
AcDbEntity
  8
Default
  6
Continuous
 62
     7
 48
25.4
100
AcDbLine
 10
21.1566101491
 20
295.427265047
 30
0.0
 11
25.1566101491
 21
295.427265047
 31
0.0
  0
LINE
  5
AC
330
1F
100
AcDbEntity
  8
Default
  6
Continuous
 62
     7
 48
25.4
100
AcDbLine
 10
25.1566101491
 20
295.427265047
 30
0.0
 11
25.1566101491
 21
243.427265047
 31
0.0
  0
LINE
  5
AD
330
1F
100
AcDbEntity
  8
Default
  6
Continuous
 62
     7
 48
25.4
100
AcDbLine
 10
25.1566101491
 20
243.427265047
 30
0.0
 11
21.1566101491
 21
243.427265047
 31
0.0
  0
LINE
  5
AE
330
1F
100
AcDbEntity
  8
Default
  6
Continuous
 62
     7
 48
25.4
100
AcDbLine
 10
27.1100355409
 20
243.427265047
 30
0.0
 11
27.1100355409
 21
295.427265047
 31
0.0
  0
LINE
  5
AF
330
1F
100
AcDbEntity
  8
Default
  6
Continuous
 62
     7
 48
25.4
100
AcDbLine
 10
27.1100355409
 20
295.427265047
 30
0.0
 11
31.1100355409
 21
295.427265047
 31
0.0
  0
LINE
  5
B0
330
1F
100
AcDbEntity
  8
Default
  6
Continuous
 62
     7
 48
25.4
100
AcDbLine
 10
31.1100355409
 20
295.427265047
 30
0.0
 11
31.1100355409
 21
243.427265047
 31
0.0
  0
LINE
  5
B1
330
1F
100
AcDbEntity
  8
Default
  6
Continuous
 62
     7
 48
25.4
100
AcDbLine
 10
31.1100355409
 20
243.427265047
 30
0.0
 11
27.1100355409
 21
243.427265047
 31
0.0
  0
LINE
  5
B2
330
1F
100
AcDbEntity
  8
Default
  6
Continuous
 62
     7
 48
25.4
100
AcDbLine
 10
33.8076391068
 20
242.683086873
 30
0.0
 11
33.8076391068
 21
294.683086873
 31
0.0
  0
LINE
  5
B3
330
1F
100
AcDbEntity
  8
Default
  6
Continuous
 62
     7
 48
25.4
100
AcDbLine
 10
33.8076391068
 20
294.683086873
 30
0.0
 11
37.8076391068
 21
294.683086873
 31
0.0
  0
LINE
  5
B4
330
1F
100
AcDbEntity
  8
Default
  6
Continuous
 62
     7
 48
25.4
100
AcDbLine
 10
37.8076391068
 20
294.683086873
 30
0.0
 11
37.8076391068
 21
242.683086873
 31
0.0
  0
LINE
  5
B5
330
1F
100
AcDbEntity
  8
Default
  6
Continuous
 62
     7
 48
25.4
100
AcDbLine
 10
37.8076391068
 20
242.683086873
 30
0.0
 11
33.8076391068
 21
242.683086873
 31
0.0
  0
LINE
  5
B6
330
1F
100
AcDbEntity
  8
Default
  6
Continuous
 62
     7
 48
25.4
100
AcDbLine
 10
40.5052426726
 20
243.427265047
 30
0.0
 11
40.5052426726
 21
295.427265047
 31
0.0
  0
LINE
  5
B7
330
1F
100
AcDbEntity
  8
Default
  6
Continuous
 62
     7
 48
25.4
100
AcDbLine
 10
40.5052426726
 20
295.427265047
 30
0.0
 11
44.5052426726
 21
295.427265047
 31
0.0
  0
LINE
  5
B8
330
1F
100
AcDbEntity
  8
Default
  6
Continuous
 62
     7
 48
25.4
100
AcDbLine
 10
44.5052426726
 20
295.427265047
 30
0.0
 11
44.5052426726
 21
243.427265047
 31
0.0
  0
LINE
  5
B9
330
1F
100
AcDbEntity
  8
Default
  6
Continuous
 62
     7
 48
25.4
100
AcDbLine
 10
44.5052426726
 20
243.427265047
 30
0.0
 11
40.5052426726
 21
243.427265047
 31
0.0
  0
LINE
  5
BA
330
1F
100
AcDbEntity
  8
Default
  6
Continuous
 62
     7
 48
25.4
100
AcDbLine
 10
46.4586680644
 20
243.427265047
 30
0.0
 11
46.4586680644
 21
295.427265047
 31
0.0
  0
LINE
  5
BB
330
1F
100
AcDbEntity
  8
Default
  6
Continuous
 62
     7
 48
25.4
100
AcDbLine
 10
46.4586680644
 20
295.427265047
 30
0.0
 11
50.4586680644
 21
295.427265047
 31
0.0
  0
LINE
  5
BC
330
1F
100
AcDbEntity
  8
Default
  6
Continuous
 62
     7
 48
25.4
100
AcDbLine
 10
50.4586680644
 20
295.427265047
 30
0.0
 11
50.4586680644
 21
243.427265047
 31
0.0
  0
LINE
  5
BD
330
1F
100
AcDbEntity
  8
Default
  6
Continuous
 62
     7
 48
25.4
100
AcDbLine
 10
50.4586680644
 20
243.427265047
 30
0.0
 11
46.4586680644
 21
243.427265047
 31
0.0
  0
LINE
  5
BE
330
1F
100
AcDbEntity
  8
Default
  6
Continuous
 62
     7
 48
25.4
100
AcDbLine
 10
53.1562716303
 20
242.683086873
 30
0.0
 11
53.1562716303
 21
294.683086873
 31
0.0
  0
LINE
  5
BF
330
1F
100
AcDbEntity
  8
Default
  6
Continuous
 62
     7
 48
25.4
100
AcDbLine
 10
53.1562716303
 20
294.683086873
 30
0.0
 11
57.1562716303
 21
294.683086873
 31
0.0
  0
LINE
  5
C0
330
1F
100
AcDbEntity
  8
Default
  6
Continuous
 62
     7
 48
25.4
100
AcDbLine
 10
57.1562716303
 20
294.683086873
 30
0.0
 11
57.1562716303
 21
242.683086873
 31
0.0
  0
LINE
  5
C1
330
1F
100
AcDbEntity
  8
Default
  6
Continuous
 62
     7
 48
25.4
100
AcDbLine
 10
57.1562716303
 20
242.683086873
 30
0.0
 11
53.1562716303
 21
242.683086873
 31
0.0
  0
LINE
  5
C2
330
1F
100
AcDbEntity
  8
Default
  6
Continuous
 62
     7
 48
25.4
100
AcDbLine
 10
111.4812783309
 20
295.0546681818
 30
0.0
 11
159.4812783309
 21
295.0546681818
 31
0.0
  0
LINE
  5
C3
330
1F
100
AcDbEntity
  8
Default
  6
Continuous
 62
     7
 48
25.4
100
AcDbLine
 10
159.4812783309
 20
295.0546681818
 30
0.0
 11
159.4812783309
 21
243.0546681818
 31
0.0
  0
LINE
  5
C4
330
1F
100
AcDbEntity
  8
Default
  6
Continuous
 62
     7
 48
25.4
100
AcDbLine
 10
159.4812783309
 20
243.0546681818
 30
0.0
 11
111.4812783309
 21
243.0546681818
 31
0.0
  0
LINE
  5
C5
330
1F
100
AcDbEntity
  8
Default
  6
Continuous
 62
     7
 48
25.4
100
AcDbLine
 10
111.4812783309
 20
243.0546681818
 30
0.0
 11
111.4812783309
 21
295.0546681818
 31
0.0
  0
LINE
  5
C6
330
1F
100
AcDbEntity
  8
Default
  6
Continuous
 62
     7
 48
25.4
100
AcDbLine
 10
60.8771625002
 20
295.0546681818
 30
0.0
 11
108.8771625002
 21
295.0546681818
 31
0.0
  0
LINE
  5
C7
330
1F
100
AcDbEntity
  8
Default
  6
Continuous
 62
     7
 48
25.4
100
AcDbLine
 10
108.8771625002
 20
295.0546681818
 30
0.0
 11
108.8771625002
 21
243.0546681818
 31
0.0
  0
LINE
  5
C8
330
1F
100
AcDbEntity
  8
Default
  6
Continuous
 62
     7
 48
25.4
100
AcDbLine
 10
108.8771625002
 20
243.0546681818
 30
0.0
 11
60.8771625002
 21
243.0546681818
 31
0.0
  0
LINE
  5
C9
330
1F
100
AcDbEntity
  8
Default
  6
Continuous
 62
     7
 48
25.4
100
AcDbLine
 10
60.8771625002
 20
243.0546681818
 30
0.0
 11
60.8771625002
 21
295.0546681818
 31
0.0
  0
LINE
  5
CA
330
1F
100
AcDbEntity
  8
Default
  6
Continuous
 62
     7
 48
25.4
100
AcDbLine
 10
162.0853941615
 20
295.7988463557
 30
0.0
 11
210.0853941615
 21
295.7988463557
 31
0.0
  0
LINE
  5
CB
330
1F
100
AcDbEntity
  8
Default
  6
Continuous
 62
     7
 48
25.4
100
AcDbLine
 10
210.0853941615
 20
295.7988463557
 30
0.0
 11
210.0853941615
 21
243.7988463557
 31
0.0
  0
LINE
  5
CC
330
1F
100
AcDbEntity
  8
Default
  6
Continuous
 62
     7
 48
25.4
100
AcDbLine
 10
210.0853941615
 20
243.7988463557
 30
0.0
 11
162.0853941615
 21
243.7988463557
 31
0.0
  0
LINE
  5
CD
330
1F
100
AcDbEntity
  8
Default
  6
Continuous
 62
     7
 48
25.4
100
AcDbLine
 10
162.0853941615
 20
243.7988463557
 30
0.0
 11
162.0853941615
 21
295.7988463557
 31
0.0
  0
LINE
  5
CE
330
1F
100
AcDbEntity
  8
Default
  6
Continuous
 62
     7
 48
25.4
100
AcDbLine
 10
237.9915679076
 20
301.0080935736
 30
0.0
 11
259.9915679076
 21
301.0080935736
 31
0.0
  0
LINE
  5
CF
330
1F
100
AcDbEntity
  8
Default
  6
Continuous
 62
     7
 48
25.4
100
AcDbLine
 10
259.9915679076
 20
301.0080935736
 30
0.0
 11
259.9915679076
 21
279.0080935736
 31
0.0
  0
LINE
  5
D0
330
1F
100
AcDbEntity
  8
Default
  6
Continuous
 62
     7
 48
25.4
100
AcDbLine
 10
259.9915679076
 20
279.0080935736
 30
0.0
 11
237.9915679076
 21
279.0080935736
 31
0.0
  0
LINE
  5
D1
330
1F
100
AcDbEntity
  8
Default
  6
Continuous
 62
     7
 48
25.4
100
AcDbLine
 10
237.9915679076
 20
279.0080935736
 30
0.0
 11
237.9915679076
 21
301.0080935736
 31
0.0
  0
LINE
  5
D2
330
1F
100
AcDbEntity
  8
Default
  6
Continuous
 62
     7
 48
25.4
100
AcDbLine
 10
212.6895099922
 20
301.7522717476
 30
0.0
 11
234.6895099922
 21
301.7522717476
 31
0.0
  0
LINE
  5
D3
330
1F
100
AcDbEntity
  8
Default
  6
Continuous
 62
     7
 48
25.4
100
AcDbLine
 10
234.6895099922
 20
301.7522717476
 30
0.0
 11
234.6895099922
 21
279.7522717476
 31
0.0
  0
LINE
  5
D4
330
1F
100
AcDbEntity
  8
Default
  6
Continuous
 62
     7
 48
25.4
100
AcDbLine
 10
234.6895099922
 20
279.7522717476
 30
0.0
 11
212.6895099922
 21
279.7522717476
 31
0.0
  0
LINE
  5
D5
330
1F
100
AcDbEntity
  8
Default
  6
Continuous
 62
     7
 48
25.4
100
AcDbLine
 10
212.6895099922
 20
279.7522717476
 30
0.0
 11
212.6895099922
 21
301.7522717476
 31
0.0
  0
LINE
  5
D6
330
1F
100
AcDbEntity
  8
Default
  6
Continuous
 62
     7
 48
25.4
100
AcDbLine
 10
212.6895099922
 20
276.4502138322
 30
0.0
 11
234.6895099922
 21
276.4502138322
 31
0.0
  0
LINE
  5
D7
330
1F
100
AcDbEntity
  8
Default
  6
Continuous
 62
     7
 48
25.4
100
AcDbLine
 10
234.6895099922
 20
276.4502138322
 30
0.0
 11
234.6895099922
 21
254.4502138322
 31
0.0
  0
LINE
  5
D8
330
1F
100
AcDbEntity
  8
Default
  6
Continuous
 62
     7
 48
25.4
100
AcDbLine
 10
234.6895099922
 20
254.4502138322
 30
0.0
 11
212.6895099922
 21
254.4502138322
 31
0.0
  0
LINE
  5
D9
330
1F
100
AcDbEntity
  8
Default
  6
Continuous
 62
     7
 48
25.4
100
AcDbLine
 10
212.6895099922
 20
254.4502138322
 30
0.0
 11
212.6895099922
 21
276.4502138322
 31
0.0
  0
LINE
  5
DA
330
1F
100
AcDbEntity
  8
Default
  6
Continuous
 62
     7
 48
25.4
100
AcDbLine
 10
372.6878173981
 20
274.9618574843
 30
0.0
 11
372.6878173981
 21
252.9618574843
 31
0.0
  0
LINE
  5
DB
330
1F
100
AcDbEntity
  8
Default
  6
Continuous
 62
     7
 48
25.4
100
AcDbLine
 10
372.6878173981
 20
252.9618574843
 30
0.0
 11
437.6878173981
 21
252.9618574843
 31
0.0
  0
LINE
  5
DC
330
1F
100
AcDbEntity
  8
Default
  6
Continuous
 62
     7
 48
25.4
100
AcDbLine
 10
437.6878173981
 20
252.9618574843
 30
0.0
 11
437.6878173981
 21
274.9618574843
 31
0.0
  0
LINE
  5
DD
330
1F
100
AcDbEntity
  8
Default
  6
Continuous
 62
     7
 48
25.4
100
AcDbLine
 10
437.6878173981
 20
274.9618574843
 30
0.0
 11
372.6878173981
 21
274.9618574843
 31
0.0
  0
LINE
  5
DE
330
1F
100
AcDbEntity
  8
Default
  6
Continuous
 62
     7
 48
25.4
100
AcDbLine
 10
263.2936258229
 20
301.0080935736
 30
0.0
 11
263.2936258229
 21
279.0080935736
 31
0.0
  0
LINE
  5
DF
330
1F
100
AcDbEntity
  8
Default
  6
Continuous
 62
     7
 48
25.4
100
AcDbLine
 10
263.2936258229
 20
279.0080935736
 30
0.0
 11
328.2936258229
 21
279.0080935736
 31
0.0
  0
LINE
  5
E0
330
1F
100
AcDbEntity
  8
Default
  6
Continuous
 62
     7
 48
25.4
100
AcDbLine
 10
328.2936258229
 20
279.0080935736
 30
0.0
 11
328.2936258229
 21
301.0080935736
 31
0.0
  0
LINE
  5
E1
330
1F
100
AcDbEntity
  8
Default
  6
Continuous
 62
     7
 48
25.4
100
AcDbLine
 10
328.2936258229
 20
301.0080935736
 30
0.0
 11
263.2936258229
 21
301.0080935736
 31
0.0
  0
LINE
  5
E2
330
1F
100
AcDbEntity
  8
Default
  6
Continuous
 62
     7
 48
25.4
100
AcDbLine
 10
237.9915679076
 20
275.7060356583
 30
0.0
 11
237.9915679076
 21
253.7060356583
 31
0.0
  0
LINE
  5
E3
330
1F
100
AcDbEntity
  8
Default
  6
Continuous
 62
     7
 48
25.4
100
AcDbLine
 10
237.9915679076
 20
253.7060356583
 30
0.0
 11
302.9915679076
 21
253.7060356583
 31
0.0
  0
LINE
  5
E4
330
1F
100
AcDbEntity
  8
Default
  6
Continuous
 62
     7
 48
25.4
100
AcDbLine
 10
302.9915679076
 20
253.7060356583
 30
0.0
 11
302.9915679076
 21
275.7060356583
 31
0.0
  0
LINE
  5
E5
330
1F
100
AcDbEntity
  8
Default
  6
Continuous
 62
     7
 48
25.4
100
AcDbLine
 10
302.9915679076
 20
275.7060356583
 30
0.0
 11
237.9915679076
 21
275.7060356583
 31
0.0
  0
LINE
  5
E6
330
1F
100
AcDbEntity
  8
Default
  6
Continuous
 62
     7
 48
25.4
100
AcDbLine
 10
331.0138396551
 20
300.2639153996
 30
0.0
 11
331.0138396551
 21
278.2639153996
 31
0.0
  0
LINE
  5
E7
330
1F
100
AcDbEntity
  8
Default
  6
Continuous
 62
     7
 48
25.4
100
AcDbLine
 10
331.0138396551
 20
278.2639153996
 30
0.0
 11
396.0138396551
 21
278.2639153996
 31
0.0
  0
LINE
  5
E8
330
1F
100
AcDbEntity
  8
Default
  6
Continuous
 62
     7
 48
25.4
100
AcDbLine
 10
396.0138396551
 20
278.2639153996
 30
0.0
 11
396.0138396551
 21
300.2639153996
 31
0.0
  0
LINE
  5
E9
330
1F
100
AcDbEntity
  8
Default
  6
Continuous
 62
     7
 48
25.4
100
AcDbLine
 10
396.0138396551
 20
300.2639153996
 30
0.0
 11
331.0138396551
 21
300.2639153996
 31
0.0
  0
LINE
  5
EA
330
1F
100
AcDbEntity
  8
Default
  6
Continuous
 62
     7
 48
25.4
100
AcDbLine
 10
304.9676035658
 20
275.7060356583
 30
0.0
 11
304.9676035658
 21
253.7060356583
 31
0.0
  0
LINE
  5
EB
330
1F
100
AcDbEntity
  8
Default
  6
Continuous
 62
     7
 48
25.4
100
AcDbLine
 10
304.9676035658
 20
253.7060356583
 30
0.0
 11
369.9676035658
 21
253.7060356583
 31
0.0
  0
LINE
  5
EC
330
1F
100
AcDbEntity
  8
Default
  6
Continuous
 62
     7
 48
25.4
100
AcDbLine
 10
369.9676035658
 20
253.7060356583
 30
0.0
 11
369.9676035658
 21
275.7060356583
 31
0.0
  0
LINE
  5
ED
330
1F
100
AcDbEntity
  8
Default
  6
Continuous
 62
     7
 48
25.4
100
AcDbLine
 10
369.9676035658
 20
275.7060356583
 30
0.0
 11
304.9676035658
 21
275.7060356583
 31
0.0
  0
LINE
  5
EE
330
1F
100
AcDbEntity
  8
Default
  6
Continuous
 62
     7
 48
25.4
100
AcDbLine
 10
398.7340534874
 20
300.2639153996
 30
0.0
 11
398.7340534874
 21
278.2639153996
 31
0.0
  0
LINE
  5
EF
330
1F
100
AcDbEntity
  8
Default
  6
Continuous
 62
     7
 48
25.4
100
AcDbLine
 10
398.7340534874
 20
278.2639153996
 30
0.0
 11
463.7340534874
 21
278.2639153996
 31
0.0
  0
LINE
  5
F0
330
1F
100
AcDbEntity
  8
Default
  6
Continuous
 62
     7
 48
25.4
100
AcDbLine
 10
463.7340534874
 20
278.2639153996
 30
0.0
 11
463.7340534874
 21
300.2639153996
 31
0.0
  0
LINE
  5
F1
330
1F
100
AcDbEntity
  8
Default
  6
Continuous
 62
     7
 48
25.4
100
AcDbLine
 10
463.7340534874
 20
300.2639153996
 30
0.0
 11
398.7340534874
 21
300.2639153996
 31
0.0
  0
LINE
  5
F2
330
1F
100
AcDbEntity
  8
Default
  6
Continuous
 62
     7
 48
25.4
100
AcDbLine
 10
552.0347573274
 20
303.9848062695
 30
0.0
 11
564.0347573274
 21
303.9848062695
 31
0.0
  0
LINE
  5
F3
330
1F
100
AcDbEntity
  8
Default
  6
Continuous
 62
     7
 48
25.4
100
AcDbLine
 10
564.0347573274
 20
303.9848062695
 30
0.0
 11
564.0347573274
 21
238.9848062695
 31
0.0
  0
LINE
  5
F4
330
1F
100
AcDbEntity
  8
Default
  6
Continuous
 62
     7
 48
25.4
100
AcDbLine
 10
564.0347573274
 20
238.9848062695
 30
0.0
 11
552.0347573274
 21
238.9848062695
 31
0.0
  0
LINE
  5
F5
330
1F
100
AcDbEntity
  8
Default
  6
Continuous
 62
     7
 48
25.4
100
AcDbLine
 10
552.0347573274
 20
238.9848062695
 30
0.0
 11
552.0347573274
 21
303.9848062695
 31
0.0
  0
LINE
  5
F6
330
1F
100
AcDbEntity
  8
Default
  6
Continuous
 62
     7
 48
25.4
100
AcDbLine
 10
465.7100891456
 20
306.2173407915
 30
0.0
 11
477.7100891456
 21
306.2173407915
 31
0.0
  0
LINE
  5
F7
330
1F
100
AcDbEntity
  8
Default
  6
Continuous
 62
     7
 48
25.4
100
AcDbLine
 10
477.7100891456
 20
306.2173407915
 30
0.0
 11
477.7100891456
 21
241.2173407915
 31
0.0
  0
LINE
  5
F8
330
1F
100
AcDbEntity
  8
Default
  6
Continuous
 62
     7
 48
25.4
100
AcDbLine
 10
477.7100891456
 20
241.2173407915
 30
0.0
 11
465.7100891456
 21
241.2173407915
 31
0.0
  0
LINE
  5
F9
330
1F
100
AcDbEntity
  8
Default
  6
Continuous
 62
     7
 48
25.4
100
AcDbLine
 10
465.7100891456
 20
241.2173407915
 30
0.0
 11
465.7100891456
 21
306.2173407915
 31
0.0
  0
LINE
  5
FA
330
1F
100
AcDbEntity
  8
Default
  6
Continuous
 62
     7
 48
25.4
100
AcDbLine
 10
480.5936526253
 20
305.4731626175
 30
0.0
 11
492.5936526253
 21
305.4731626175
 31
0.0
  0
LINE
  5
FB
330
1F
100
AcDbEntity
  8
Default
  6
Continuous
 62
     7
 48
25.4
100
AcDbLine
 10
492.5936526253
 20
305.4731626175
 30
0.0
 11
492.5936526253
 21
240.4731626175
 31
0.0
  0
LINE
  5
FC
330
1F
100
AcDbEntity
  8
Default
  6
Continuous
 62
     7
 48
25.4
100
AcDbLine
 10
492.5936526253
 20
240.4731626175
 30
0.0
 11
480.5936526253
 21
240.4731626175
 31
0.0
  0
LINE
  5
FD
330
1F
100
AcDbEntity
  8
Default
  6
Continuous
 62
     7
 48
25.4
100
AcDbLine
 10
480.5936526253
 20
240.4731626175
 30
0.0
 11
480.5936526253
 21
305.4731626175
 31
0.0
  0
LINE
  5
FE
330
1F
100
AcDbEntity
  8
Default
  6
Continuous
 62
     7
 48
25.4
100
AcDbLine
 10
494.7330379309
 20
306.2173407915
 30
0.0
 11
506.7330379309
 21
306.2173407915
 31
0.0
  0
LINE
  5
FF
330
1F
100
AcDbEntity
  8
Default
  6
Continuous
 62
     7
 48
25.4
100
AcDbLine
 10
506.7330379309
 20
306.2173407915
 30
0.0
 11
506.7330379309
 21
241.2173407915
 31
0.0
  0
LINE
  5
100
330
1F
100
AcDbEntity
  8
Default
  6
Continuous
 62
     7
 48
25.4
100
AcDbLine
 10
506.7330379309
 20
241.2173407915
 30
0.0
 11
494.7330379309
 21
241.2173407915
 31
0.0
  0
LINE
  5
101
330
1F
100
AcDbEntity
  8
Default
  6
Continuous
 62
     7
 48
25.4
100
AcDbLine
 10
494.7330379309
 20
241.2173407915
 30
0.0
 11
494.7330379309
 21
306.2173407915
 31
0.0
  0
LINE
  5
102
330
1F
100
AcDbEntity
  8
Default
  6
Continuous
 62
     7
 48
25.4
100
AcDbLine
 10
508.8724232365
 20
306.2173407915
 30
0.0
 11
520.8724232365
 21
306.2173407915
 31
0.0
  0
LINE
  5
103
330
1F
100
AcDbEntity
  8
Default
  6
Continuous
 62
     7
 48
25.4
100
AcDbLine
 10
520.8724232365
 20
306.2173407915
 30
0.0
 11
520.8724232365
 21
241.2173407915
 31
0.0
  0
LINE
  5
104
330
1F
100
AcDbEntity
  8
Default
  6
Continuous
 62
     7
 48
25.4
100
AcDbLine
 10
520.8724232365
 20
241.2173407915
 30
0.0
 11
508.8724232365
 21
241.2173407915
 31
0.0
  0
LINE
  5
105
330
1F
100
AcDbEntity
  8
Default
  6
Continuous
 62
     7
 48
25.4
100
AcDbLine
 10
508.8724232365
 20
241.2173407915
 30
0.0
 11
508.8724232365
 21
306.2173407915
 31
0.0
  0
LINE
  5
106
330
1F
100
AcDbEntity
  8
Default
  6
Continuous
 62
     7
 48
25.4
100
AcDbLine
 10
523.0118085422
 20
306.2173407915
 30
0.0
 11
535.0118085422
 21
306.2173407915
 31
0.0
  0
LINE
  5
107
330
1F
100
AcDbEntity
  8
Default
  6
Continuous
 62
     7
 48
25.4
100
AcDbLine
 10
535.0118085422
 20
306.2173407915
 30
0.0
 11
535.0118085422
 21
241.2173407915
 31
0.0
  0
LINE
  5
108
330
1F
100
AcDbEntity
  8
Default
  6
Continuous
 62
     7
 48
25.4
100
AcDbLine
 10
535.0118085422
 20
241.2173407915
 30
0.0
 11
523.0118085422
 21
241.2173407915
 31
0.0
  0
LINE
  5
109
330
1F
100
AcDbEntity
  8
Default
  6
Continuous
 62
     7
 48
25.4
100
AcDbLine
 10
523.0118085422
 20
241.2173407915
 30
0.0
 11
523.0118085422
 21
306.2173407915
 31
0.0
  0
LINE
  5
10A
330
1F
100
AcDbEntity
  8
Default
  6
Continuous
 62
     7
 48
25.4
100
AcDbLine
 10
537.1511938478
 20
303.9848062695
 30
0.0
 11
549.1511938478
 21
303.9848062695
 31
0.0
  0
LINE
  5
10B
330
1F
100
AcDbEntity
  8
Default
  6
Continuous
 62
     7
 48
25.4
100
AcDbLine
 10
549.1511938478
 20
303.9848062695
 30
0.0
 11
549.1511938478
 21
238.9848062695
 31
0.0
  0
LINE
  5
10C
330
1F
100
AcDbEntity
  8
Default
  6
Continuous
 62
     7
 48
25.4
100
AcDbLine
 10
549.1511938478
 20
238.9848062695
 30
0.0
 11
537.1511938478
 21
238.9848062695
 31
0.0
  0
LINE
  5
10D
330
1F
100
AcDbEntity
  8
Default
  6
Continuous
 62
     7
 48
25.4
100
AcDbLine
 10
537.1511938478
 20
238.9848062695
 30
0.0
 11
537.1511938478
 21
303.9848062695
 31
0.0
  0
LINE
  5
10E
330
1F
100
AcDbEntity
  8
Default
  6
Continuous
 62
     7
 48
25.4
100
AcDbLine
 10
439.6638530563
 20
275.7060356583
 30
0.0
 11
461.6638530563
 21
275.7060356583
 31
0.0
  0
LINE
  5
10F
330
1F
100
AcDbEntity
  8
Default
  6
Continuous
 62
     7
 48
25.4
100
AcDbLine
 10
461.6638530563
 20
275.7060356583
 30
0.0
 11
461.6638530563
 21
253.7060356583
 31
0.0
  0
LINE
  5
110
330
1F
100
AcDbEntity
  8
Default
  6
Continuous
 62
     7
 48
25.4
100
AcDbLine
 10
461.6638530563
 20
253.7060356583
 30
0.0
 11
439.6638530563
 21
253.7060356583
 31
0.0
  0
LINE
  5
111
330
1F
100
AcDbEntity
  8
Default
  6
Continuous
 62
     7
 48
25.4
100
AcDbLine
 10
439.6638530563
 20
253.7060356583
 30
0.0
 11
439.6638530563
 21
275.7060356583
 31
0.0
  0
LINE
  5
112
330
1F
100
AcDbEntity
  8
Default
  6
Continuous
 62
     7
 48
25.4
100
AcDbLine
 10
589.662498981
 20
304.3101514889
 30
0.0
 11
567.662498981
 21
304.3101514889
 31
0.0
  0
LINE
  5
113
330
1F
100
AcDbEntity
  8
Default
  6
Continuous
 62
     7
 48
25.4
100
AcDbLine
 10
567.662498981
 20
304.3101514889
 30
0.0
 11
567.662498981
 21
239.3101514889
 31
0.0
  0
LINE
  5
114
330
1F
100
AcDbEntity
  8
Default
  6
Continuous
 62
     7
 48
25.4
100
AcDbLine
 10
567.662498981
 20
239.3101514889
 30
0.0
 11
589.662498981
 21
239.3101514889
 31
0.0
  0
LINE
  5
115
330
1F
100
AcDbEntity
  8
Default
  6
Continuous
 62
     7
 48
25.4
100
AcDbLine
 10
589.662498981
 20
239.3101514889
 30
0.0
 11
589.662498981
 21
304.3101514889
 31
0.0
  0
LINE
  5
116
330
1F
100
AcDbEntity
  8
Default
  6
Continuous
 62
     7
 48
25.4
100
AcDbLine
 10
191.1083429468
 20
239.9854833072
 30
0.0
 11
191.1083429468
 21
209.9854833072
 31
0.0
  0
LINE
  5
117
330
1F
100
AcDbEntity
  8
Default
  6
Continuous
 62
     7
 48
25.4
100
AcDbLine
 10
191.1083429468
 20
209.9854833072
 30
0.0
 11
1.1083429468
 21
209.9854833072
 31
0.0
  0
LINE
  5
118
330
1F
100
AcDbEntity
  8
Default
  6
Continuous
 62
     7
 48
25.4
100
AcDbLine
 10
1.1083429468
 20
209.9854833072
 30
0.0
 11
1.1083429468
 21
239.9854833072
 31
0.0
  0
LINE
  5
119
330
1F
100
AcDbEntity
  8
Default
  6
Continuous
 62
     7
 48
25.4
100
AcDbLine
 10
17.1286088359
 20
239.9854833072
 30
0.0
 11
191.1083429468
 21
239.9854833072
 31
0.0
  0
LINE
  5
11A
330
1F
100
AcDbEntity
  8
Default
  6
Continuous
 62
     7
 48
25.4
100
AcDbLine
 10
383.8504900078
 20
239.9854833072
 30
0.0
 11
383.8504900078
 21
209.9854833072
 31
0.0
  0
LINE
  5
11B
330
1F
100
AcDbEntity
  8
Default
  6
Continuous
 62
     7
 48
25.4
100
AcDbLine
 10
383.8504900078
 20
209.9854833072
 30
0.0
 11
193.8504900078
 21
209.9854833072
 31
0.0
  0
LINE
  5
11C
330
1F
100
AcDbEntity
  8
Default
  6
Continuous
 62
     7
 48
25.4
100
AcDbLine
 10
193.8504900078
 20
209.9854833072
 30
0.0
 11
193.8504900078
 21
239.9854833072
 31
0.0
  0
LINE
  5
11D
330
1F
100
AcDbEntity
  8
Default
  6
Continuous
 62
     7
 48
25.4
100
AcDbLine
 10
193.8504900078
 20
239.9854833072
 30
0.0
 11
383.8504900078
 21
239.9854833072
 31
0.0
  0
LINE
  5
11E
330
1F
100
AcDbEntity
  8
Default
  6
Continuous
 62
     7
 48
25.4
100
AcDbLine
 10
301.9908908699
 20
207.241643652
 30
0.0
 11
301.9908908699
 21
177.241643652
 31
0.0
  0
LINE
  5
11F
330
1F
100
AcDbEntity
  8
Default
  6
Continuous
 62
     7
 48
25.4
100
AcDbLine
 10
301.9908908699
 20
177.241643652
 30
0.0
 11
1.9908908699
 21
177.241643652
 31
0.0
  0
LINE
  5
120
330
1F
100
AcDbEntity
  8
Default
  6
Continuous
 62
     7
 48
25.4
100
AcDbLine
 10
301.9908908699
 20
207.241643652
 30
0.0
 11
1.9908908699
 21
207.241643652
 31
0.0
  0
LINE
  5
121
330
1F
100
AcDbEntity
  8
Default
  6
Continuous
 62
     7
 48
25.4
100
AcDbLine
 10
1.9908908699
 20
207.241643652
 30
0.0
 11
1.9908908699
 21
177.241643652
 31
0.0
  0
LINE
  5
122
330
1F
100
AcDbEntity
  8
Default
  6
Continuous
 62
     7
 48
25.4
100
AcDbLine
 10
301.9908908699
 20
173.7536258229
 30
0.0
 11
301.9908908699
 21
143.7536258229
 31
0.0
  0
LINE
  5
123
330
1F
100
AcDbEntity
  8
Default
  6
Continuous
 62
     7
 48
25.4
100
AcDbLine
 10
301.9908908699
 20
143.7536258229
 30
0.0
 11
1.9908908699
 21
143.7536258229
 31
0.0
  0
LINE
  5
124
330
1F
100
AcDbEntity
  8
Default
  6
Continuous
 62
     7
 48
25.4
100
AcDbLine
 10
301.9908908699
 20
173.7536258229
 30
0.0
 11
1.9908908699
 21
173.7536258229
 31
0.0
  0
LINE
  5
125
330
1F
100
AcDbEntity
  8
Default
  6
Continuous
 62
     7
 48
25.4
100
AcDbLine
 10
1.9908908699
 20
173.7536258229
 30
0.0
 11
1.9908908699
 21
143.7536258229
 31
0.0
  0
LINE
  5
126
330
1F
100
AcDbEntity
  8
Default
  6
Continuous
 62
     7
 48
25.4
100
AcDbLine
 10
46.6018923203
 20
235.0396663328
 30
0.0
 11
46.6018923203
 21
225.0396663328
 31
0.0
  0
LINE
  5
127
330
1F
100
AcDbEntity
  8
Default
  6
Continuous
 62
     7
 48
25.4
100
AcDbLine
 10
46.6018923203
 20
225.0396663328
 30
0.0
 11
146.6018923203
 21
225.0396663328
 31
0.0
  0
LINE
  5
128
330
1F
100
AcDbEntity
  8
Default
  6
Continuous
 62
     7
 48
25.4
100
AcDbLine
 10
46.6018923203
 20
235.0396663328
 30
0.0
 11
146.6018923203
 21
235.0396663328
 31
0.0
  0
LINE
  5
129
330
1F
100
AcDbEntity
  8
Default
  6
Continuous
 62
     7
 48
25.4
100
AcDbLine
 10
146.6018923203
 20
235.0396663328
 30
0.0
 11
146.6018923203
 21
225.0396663328
 31
0.0
  0
LINE
  5
12A
330
1F
100
AcDbEntity
  8
Default
  6
Continuous
 62
     7
 48
25.4
100
AcDbLine
 10
11.1299511607
 20
237.9822176113
 30
0.0
 11
11.1299511607
 21
239.9822176113
 31
0.0
  0
LINE
  5
12B
330
1F
100
AcDbEntity
  8
Default
  6
Continuous
 62
     7
 48
25.4
100
AcDbLine
 10
17.1299511607
 20
237.9822176113
 30
0.0
 11
17.1299511607
 21
239.9822176113
 31
0.0
  0
ARC
  5
12C
330
1F
100
AcDbEntity
  8
Default
  6
Continuous
 62
     7
 48
25.4
100
AcDbCircle
 10
14.1299511607
 20
237.9822176113
 30
0.0
 40
3.0
100
AcDbArc
 50
180.0
 51
360.0
  0
LINE
  5
12D
330
1F
100
AcDbEntity
  8
Default
  6
Continuous
 62
     7
 48
25.4
100
AcDbLine
 10
1.1083429468
 20
239.9854833072
 30
0.0
 11
11.1286088359
 21
239.9854833072
 31
0.0
  0
ENDSEC
  0
SECTION
  2
OBJECTS
  0
DICTIONARY
  5
C
330
0
100
AcDbDictionary
281
     1
  3
ACAD_GROUP
350
D
  3
ACAD_LAYOUT
350
1A
  3
ACAD_MLINESTYLE
350
17
  3
ACAD_PLOTSETTINGS
350
19
  3
ACAD_PLOTSTYLENAME
350
E
  0
DICTIONARY
  5
D
102
{ACAD_REACTORS
330
C
102
}
330
C
100
AcDbDictionary
281
     1
  0
DICTIONARY
  5
1A
102
{ACAD_REACTORS
330
C
102
}
330
C
100
AcDbDictionary
281
     1
  3
Layout1
350
1E
  3
Model
350
22
  0
DICTIONARY
  5
17
102
{ACAD_REACTORS
330
C
102
}
330
C
100
AcDbDictionary
281
     1
  3
Standard
350
18
  0
DICTIONARY
  5
19
102
{ACAD_REACTORS
330
C
102
}
330
C
100
AcDbDictionary
281
     1
  0
ACDBDICTIONARYWDFLT
  5
E
102
{ACAD_REACTORS
330
C
102
}
330
C
100
AcDbDictionary
281
     1
  3
Normal
350
F
100
AcDbDictionaryWithDefault
340
F
  0
LAYOUT
  5
1E
102
{ACAD_REACTORS
330
1A
102
}
330
1A
100
AcDbPlotSettings
  1

  2

  4

  6

 40
0.0
 41
0.0
 42
0.0
 43
0.0
 44
0.0
 45
0.0
 46
0.0
 47
0.0
 48
0.0
 49
0.0
140
0.0
141
0.0
142
1.0
143
1.0
 70
   688
 72
     0
 73
     0
 74
     5
  7

 75
    16
147
1.0
148
0.0
149
0.0
100
AcDbLayout
  1
Layout1
 70
     1
 71
     1
 10
0.0
 20
0.0
 11
594.0
 21
420.0
 12
0.0
 22
0.0
 32
0.0
 14
0.0
 24
0.0
 34
0.0
 15
594.0
 25
420.0
 35
0.0
146
0.0
 13
0.0
 23
0.0
 33
0.0
 16
1.0
 26
0.0
 36
0.0
 17
0.0
 27
1.0
 37
0.0
 76
     0
330
1B
  0
LAYOUT
  5
22
102
{ACAD_REACTORS
330
1A
102
}
330
1A
100
AcDbPlotSettings
  1

  2

  4

  6

 40
0.0
 41
0.0
 42
0.0
 43
0.0
 44
0.0
 45
0.0
 46
0.0
 47
0.0
 48
0.0
 49
0.0
140
0.0
141
0.0
142
1.0
143
1.0
 70
  1712
 72
     0
 73
     0
 74
     0
  7

 75
     0
147
1.0
148
0.0
149
0.0
100
AcDbLayout
  1
Model
 70
     1
 71
     0
 10
0.0
 20
0.0
 11
594.0
 21
420.0
 12
0.0
 22
0.0
 32
0.0
 14
0.0
 24
0.0
 34
0.0
 15
594.0
 25
420.0
 35
0.0
146
0.0
 13
0.0
 23
0.0
 33
0.0
 16
1.0
 26
0.0
 36
0.0
 17
0.0
 27
1.0
 37
0.0
 76
     0
330
1F
  0
MLINESTYLE
  5
18
102
{ACAD_REACTORS
330
17
102
}
330
17
100
AcDbMlineStyle
  2
Standard
 70
     0
  3

 62
   256
 51
90.0
 52
90.0
 71
     2
 49
0.5
 62
   256
  6
BYLAYER
 49
-0.5
 62
   256
  6
BYLAYER
  0
ACDBPLACEHOLDER
  5
F
102
{ACAD_REACTORS
330
E
102
}
330
E
  0
ENDSEC
  0
EOF
